HIERARCHY
ROOT Hips
{
	OFFSET 0.000000 0.000000 0.000000
	CHANNELS 6 Xposition Yposition Zposition Zrotation Yrotation Xrotation 
	JOINT LHipJoint
	{
		OFFSET 0.000000 0.000000 0.000000
		CHANNELS 3 Zrotation Yrotation Xrotation
		JOINT LeftUpLeg
		{
			OFFSET 1.363060 -1.794630 0.839290
			CHANNELS 3 Zrotation Yrotation Xrotation
			JOINT LeftLeg
			{
				OFFSET 2.448110 -6.726130 0.000000
				CHANNELS 3 Zrotation Yrotation Xrotation
				JOINT LeftFoot
				{
					OFFSET 2.562200 -7.039590 0.000000
					CHANNELS 3 Zrotation Yrotation Xrotation
					JOINT LeftToeBase
					{
						OFFSET 0.157640 -0.433110 2.322550
						CHANNELS 3 Zrotation Yrotation Xrotation
						End Site
						{
							OFFSET 0.000000 0.000000 0.000000
						}
					}
				}
			}
		}
	}
	JOINT RHipJoint
	{
		OFFSET 0.000000 0.000000 0.000000
		CHANNELS 3 Zrotation Yrotation Xrotation
		JOINT RightUpLeg
		{
			OFFSET -1.305520 -1.794630 0.839290
			CHANNELS 3 Zrotation Yrotation Xrotation
			JOINT RightLeg
			{
				OFFSET -2.542530 -6.985550 0.000000
				CHANNELS 3 Zrotation Yrotation Xrotation
				JOINT RightFoot
				{
					OFFSET -2.568260 -7.056230 0.000000
					CHANNELS 3 Zrotation Yrotation Xrotation
					JOINT RightToeBase
					{
						OFFSET -0.164730 -0.452590 2.363150
						CHANNELS 3 Zrotation Yrotation Xrotation
						End Site
						{
							OFFSET 0.000000 0.000000 0.000000
						}
					}
				}
			}
		}
	}
}
MOTION
Frames: 19
Frame Time: 0.008333
-20.223148 16.482321 -0.203212 0.811075 84.098470 15.319905 -9.546075 -0.078213 4.806852 -10.203400 -3.402784 -50.532730 -1.772257 0.814440 28.774309 1.485605 6.950199 -4.092055 0.914600 -0.000000 -17.320300 9.883582 -5.528854 1.151739 4.758952 -4.693106 6.334781 1.133431 -2.069159 22.820809 0.591545 11.214775 17.115039 4.336800 -0.000000 -81.561201
-20.050944 16.461795 -0.212762 3.570939 84.276682 17.671677 -9.538618 -0.115284 4.565941 -10.826154 -3.127036 -50.439623 -1.679057 0.979820 30.863418 1.448519 6.833370 -4.119622 0.867200 -0.000000 -16.941601 10.142791 -5.599664 1.042222 3.909082 -5.436442 5.257046 0.887752 -2.299852 26.005539 0.449059 11.561043 18.508883 4.805600 0.000000 -80.621900
-19.885695 16.435621 -0.223797 6.520784 84.445368 20.153215 -9.508482 -0.159415 4.290773 -11.475869 -2.817545 -50.243509 -1.591751 1.128174 32.948464 1.405526 6.649925 -4.329315 0.785700 -0.000001 -16.561000 10.430859 -5.636019 0.882838 3.006377 -6.284464 4.113957 0.642044 -2.526792 29.449770 0.276248 11.480003 19.667897 5.067400 0.000000 -79.184000
-19.727450 16.403650 -0.236574 9.495118 84.580276 22.604841 -9.459154 -0.200747 3.985156 -12.143105 -2.451297 -49.949851 -1.514276 1.261097 35.008030 1.359881 6.408525 -4.741790 0.672199 -0.000000 -16.186499 10.735449 -5.631835 0.679988 2.078396 -7.184986 2.927748 0.397233 -2.751342 33.112562 0.075881 10.840248 20.545033 5.031200 0.000000 -77.367500
-19.575507 16.366092 -0.251185 12.360384 84.666136 24.902189 -9.396626 -0.232060 3.654424 -12.819909 -2.013510 -49.568707 -1.449903 1.380846 37.021846 1.315265 6.124417 -5.364168 0.532200 -0.000000 -15.833100 11.044069 -5.584531 0.441871 1.149357 -8.090196 1.711528 0.153087 -2.976226 36.952763 -0.149931 9.563856 21.084371 4.636700 -0.000000 -75.235200
-19.429471 16.323460 -0.267483 15.036754 84.698276 26.978175 -9.326609 -0.249616 3.304772 -13.499929 -1.500396 -49.114190 -1.400709 1.489430 38.971022 1.275362 5.817383 -6.189619 0.373200 -0.000000 -15.520400 11.347341 -5.495644 0.178222 0.238892 -8.958986 0.468707 -0.090691 -3.205154 40.930073 -0.400013 7.642446 21.222184 3.872900 -0.000000 -72.780800
-19.288716 16.276593 -0.285278 17.475624 84.678828 28.798591 -9.254249 -0.252257 2.942586 -14.175409 -0.916254 -48.602818 -1.367115 1.588792 40.840196 1.243308 5.507904 -7.197369 0.203000 -0.000001 -15.269300 11.638452 -5.370018 -0.100478 -0.633261 -9.756877 -0.804573 -0.334279 -3.442102 45.003314 -0.672903 5.144273 20.897127 2.790300 0.000000 -69.948600
-19.152416 16.226585 -0.304192 19.670268 84.615289 30.372101 -9.182471 -0.240458 2.574666 -14.838941 -0.274528 -48.051435 -1.348056 1.680307 42.616836 1.221604 5.215686 -8.355437 0.028500 0.000000 -15.097500 11.914706 -5.215567 -0.383610 -1.450767 -10.458995 -2.118170 -0.578091 -3.690927 49.130939 -0.965020 2.212929 20.065091 1.501101 0.000000 -66.679900
-19.019949 16.174616 -0.323747 21.661083 84.518824 31.754527 -9.110623 -0.215453 2.208021 -15.486244 0.402362 -47.476426 -1.341309 1.764644 44.290950 1.211992 4.958162 -9.623074 -0.145100 0.000000 -15.014800 12.178476 -5.041744 -0.661488 -2.204271 -11.052690 -3.487103 -0.823405 -3.954836 53.272135 -1.269290 -0.952378 18.716070 0.161000 0.000000 -62.946100
-18.890609 16.121962 -0.343391 23.511589 84.401814 33.023949 -9.035583 -0.178471 1.849791 -16.115961 1.085761 -46.892205 -1.343827 1.842039 45.855239 1.215477 4.749465 -10.955174 -0.314700 -0.000000 -15.020500 12.435001 -4.857592 -0.925977 -2.889358 -11.535915 -4.927422 -1.072634 -4.235352 57.385818 -1.574796 -4.130995 16.885337 -1.064700 0.000000 -58.786400
-18.763948 16.069822 -0.362693 25.268115 84.275140 34.239586 -8.955303 -0.130638 1.507132 -16.724400 1.746663 -46.312264 -1.352176 1.913009 47.306093 1.231918 4.597416 -12.306470 -0.479300 -0.000001 -15.102700 12.687730 -4.670018 -1.170623 -3.500314 -11.911667 -6.451843 -1.328945 -4.531021 61.430178 -1.867756 -7.118497 14.651270 -2.039400 -0.000000 -54.306300
-18.639267 16.019343 -0.381194 27.007271 84.150590 35.487656 -8.864721 -0.072678 1.186626 -17.314038 2.352508 -45.743560 -1.363017 1.977235 48.639612 1.260627 4.506919 -13.633965 -0.639000 -0.000000 -15.239600 12.942919 -4.482796 -1.391774 -4.040562 -12.193990 -8.069245 -1.594650 -4.838623 65.365254 -2.132971 -9.747623 12.120179 -2.677900 0.000000 -49.635500
-18.516476 15.971493 -0.398719 28.761034 84.038006 36.807427 -8.762564 -0.005392 0.894264 -17.882010 2.876795 -45.191460 -1.373429 2.035097 49.855846 1.299957 4.476357 -14.902750 -0.794400 -0.000000 -15.404900 13.201467 -4.296485 -1.588138 -4.508002 -12.399162 -9.780988 -1.870457 -5.152287 69.151789 -2.356248 -11.905731 9.409391 -2.958300 -0.000000 -44.921600
-18.394951 15.927046 -0.415197 30.563544 83.946279 38.236218 -8.647584 0.070509 0.634484 -18.426723 3.297024 -44.656203 -1.381344 2.086867 50.955014 1.347753 4.500178 -16.086072 -0.945900 0.000001 -15.571400 13.463374 -4.108819 -1.761328 -4.903455 -12.548956 -11.581419 -2.154305 -5.465410 72.751618 -2.525337 -13.526013 6.626816 -2.910500 -0.000000 -40.271999
-18.274658 15.886709 -0.430725 32.449332 83.882787 39.807316 -8.518690 0.155093 0.410568 -18.948038 3.596975 -44.130372 -1.385776 2.132505 51.934329 1.401863 4.571339 -17.166162 -1.093400 0.000001 -15.713900 13.727697 -3.915897 -1.914330 -5.231853 -12.667279 -13.457267 -2.441166 -5.771273 76.126200 -2.631006 -14.579762 3.861599 -2.600799 -0.000000 -35.737800
-18.155398 15.850912 -0.445724 34.401025 83.852679 41.499830 -8.380830 0.247052 0.223185 -19.436277 3.773892 -43.608114 -1.386790 2.173250 52.796364 1.459388 4.676394 -18.137510 -1.236100 -0.000000 -15.814800 13.986553 -3.713667 -2.051698 -5.486814 -12.773038 -15.389783 -2.723367 -6.062573 79.238395 -2.668386 -15.073912 1.184055 -2.115899 -0.000000 -31.354100
-18.036804 15.819977 -0.460663 36.419382 83.859128 43.309152 -8.237561 0.345582 0.071108 -19.885781 3.831043 -43.078738 -1.385589 2.209858 53.539826 1.518006 4.803076 -19.002631 -1.372900 0.000001 -15.861300 14.233503 -3.498137 -2.178000 -5.667773 -12.883344 -17.358089 -2.991186 -6.333161 82.052854 -2.636749 -15.039281 -1.351452 -1.545599 -0.000000 -27.138699
-17.919137 15.794228 -0.476143 38.483027 83.903454 45.205971 -8.095455 0.449193 -0.048544 -20.287404 3.782691 -42.531973 -1.384076 2.243309 54.164295 1.575412 4.937641 -19.771297 -1.502200 0.000000 -15.848400 14.459312 -3.267003 -2.296477 -5.768654 -13.007740 -19.340714 -3.234034 -6.577127 84.537365 -2.540557 -14.533541 -3.696392 -0.973300 0.000000 -23.151900
-17.801863 15.773845 -0.492651 40.574283 83.984831 47.164178 -7.960817 0.556335 -0.139703 -20.633446 3.648464 -41.957640 -1.384592 2.274235 54.668508 1.629828 5.067837 -20.457936 -1.623100 0.000000 -15.777401 14.655662 -3.019342 -2.408636 -5.784017 -13.149514 -21.317915 -3.442026 -6.789467 86.665551 -2.389442 -13.637929 -5.803550 -0.465800 0.000000 -19.529800
